# xmcd CD database file
#
# Track frame offsets:
#	150
#	13620
#	27595
#
# Disc length: 564 seconds
#
# Revision: 0
# Processed by: cddbd v1.5.1PL0 Copyright (c) Steve Scherf et al.
# Submitted via: CDex 1.50
#
DISCID=1c023203
DTITLE=Cocteau Twins - Athol-Brose
DYEAR=1992
DGENRE=Ambient
TTITLE0=Athol-Brose
TTITLE1=Carolyn's Fingers
TTITLE2=Ice Blink Luck
EXTD=YEAR: 1992
EXTT0=
EXTT1=
EXTT2=
PLAYORDER=
